<?xml version="1.0" standalone="no"?>
<!DOCTYPE svg PUBLIC "-//W3C//DTD SVG 1.1//EN" "http://www.w3.org/Graphics/SVG/1.1/DTD/svg11.dtd" >
<svg xmlns="http://www.w3.org/2000/svg" xmlns:xlink="http://www.w3.org/1999/xlink" version="1.1">
<metadata></metadata>
<defs>
<font id="codigo_numericoregular" horiz-adv-x="1705" >
<font-face units-per-em="2048" ascent="1536" descent="-512" />
<missing-glyph horiz-adv-x="1024" />
<glyph horiz-adv-x="0" />
<glyph unicode="&#xd;" horiz-adv-x="1024" />
<glyph horiz-adv-x="0" />
<glyph horiz-adv-x="0" />
<glyph unicode=" "  horiz-adv-x="1024" />
<glyph unicode="&#x09;" horiz-adv-x="1024" />
<glyph unicode="&#xa0;" horiz-adv-x="1024" />
<glyph unicode="+" />
<glyph unicode="A" horiz-adv-x="0" d="M-4 893v184q78 27 174 99q92 74 127 170h166v-1065h-203v766q-115 -106 -264 -154zM-2 -12v202h1257v-202h-1257zM582 561l196 25q8 -72 51 -115q41 -41 101 -41q63 0 106 49q43 45 43 129q0 74 -43 121q-39 45 -100 45q-18 0 -42 -4t-50 -10l22 164q82 0 125 37t43 100 q0 55 -30 86q-16 16 -37 24.5t-49 8.5q-51 0 -89 -37q-37 -37 -45 -107l-188 33q10 47 24.5 86t34.5 68q37 55 111 90q68 33 158 33q150 0 241 -95q74 -80 74 -178q0 -137 -152 -223q90 -18 146 -86q53 -68 53 -166q0 -139 -100 -238q-104 -98 -256 -98q-143 0 -238 82 q-94 82 -110 217z" />
<glyph unicode="C" horiz-adv-x="1536" d="M8 -4v203h1391v-203h-1391zM16 289q12 111 70 203q29 47 86 111.5t143 141.5q68 66 110 109t58 66q43 63 43 124q0 68 -37 105t-102 37q-63 0 -100 -39q-37 -37 -43 -127l-203 20q18 168 113 242q92 72 239 72q160 0 246 -84q90 -82 90 -211q0 -72 -24 -135 q-29 -68 -82 -138q-35 -43 -134 -135q-96 -90 -122 -116q-12 -16 -22.5 -29.5t-18.5 -28.5h403v-188h-713zM690 805q0 295 107 422q109 127 280 127q121 0 201 -68q77 -67 100 -196l-196 -21q-6 59 -37 90q-33 29 -80 29q-63 0 -109 -58q-45 -57 -57 -241q78 90 191 90 q127 0 217 -98q92 -96 92 -250q0 -162 -96 -262q-96 -98 -246 -99q-160 0 -264 125q-102 123 -103 410zM918 647q0 -102 45 -153q45 -53 104 -54q57 0 94 43q39 45 39 146q0 100 -41 151q-39 47 -102 47q-59 0 -99 -45q-40 -47 -40 -135z" />
<glyph unicode="D" d="M3279 901v184q80 29 174 101q92 72 127 168h166v-1065h-203v766q-115 -104 -264 -154zM3281 -4v203h1257v-203h-1257zM3875 561l203 23q10 -72 51 -111t98 -39q63 0 109 51q43 51 43 156q0 98 -43 147t-115 50q-88 0 -156 -78l-166 22l105 553h538v-190h-385l-30 -180 q68 34 135 34h4q133 0 229 -98q94 -100 95 -256q0 -131 -78 -233q-102 -141 -287 -142q-147 0 -240 80q-92 76 -110 211z" />
<glyph unicode="E" horiz-adv-x="1024" d="M3795 1153v188h696v-147q-45 -41 -88 -102.5t-88 -141.5q-88 -156 -135 -336q-25 -90 -36 -168.5t-11 -150.5h-197q6 221 92 448q86 229 230 410h-463z" />
<glyph unicode="G" d="M0 2v203h1391v-203h-1391zM8 295q12 111 70 203q29 47 86 111.5t143 144.5q135 125 168 172q43 63 43 125q0 68 -37 104q-37 37 -102 37q-63 0 -100 -39q-37 -37 -43 -127l-203 21q18 168 112 241q94 74 240 74q156 0 246 -86q90 -82 90 -211q0 -72 -25 -135 q-14 -33 -33.5 -68t-48.5 -69q-35 -43 -133 -136q-96 -90 -123 -116q-12 -16 -22 -29.5t-19 -28.5h404v-188h-713zM680 821q0 299 104 432q86 109 242 109q154 0 240 -111q104 -133 104 -432q0 -303 -104 -434q-86 -109 -240 -109q-156 0 -250 119q-96 121 -96 426zM893 819 q0 -188 18 -258q10 -35 21.5 -58.5t28.5 -33.5q25 -23 65 -23q37 0 66 23q27 25 45 84q10 41 15 106.5t5 159.5q0 184 -18 256q-18 68 -47 94q-33 23 -66 23q-35 0 -68 -23q-27 -23 -45 -86q-10 -39 -15 -104.5t-5 -159.5z" />
<glyph unicode="I" horiz-adv-x="2252" d="M4655 979q0 160 96 260q94 98 244 98q162 0 266 -125q102 -125 103 -409q0 -293 -109 -420q-109 -129 -280 -129q-123 0 -201 65q-78 68 -98 199l196 21q6 -57 37 -88q33 -29 82 -29q63 0 106 57q45 61 58 240q-76 -88 -193 -88q-125 0 -217 96q-90 100 -90 252z M4856 979q0 -104 39 -152q43 -47 102 -47t98 45q41 52 41 138q0 96 -45 153q-47 53 -104 53t-94 -45q-37 -43 -37 -145z" />
<glyph unicode="J" d="M152 891v184q80 29 174 101q92 72 127 167h165v-1064h-202v765q-115 -106 -264 -153z" />
<glyph unicode="L" d="M-512 2v203h1391v-203h-1391zM-504 295q12 111 70 203q29 47 86 111.5t143 142.5q68 66 110 108.5t58 65.5q43 63 43 125q0 68 -37 104q-37 37 -102 37q-63 0 -100 -39q-37 -37 -43 -127l-203 21q18 168 112 241q92 72 240 72q160 0 246 -84q90 -82 90 -211 q0 -72 -25 -135q-29 -68 -82 -137q-35 -43 -133 -136q-96 -90 -123 -116q-12 -16 -22 -29.5t-19 -28.5h404v-188h-713zM143 295q12 111 70 203q29 47 86 111.5t143 142.5q68 66 110 108.5t58 65.5q41 61 41 125q0 66 -35 104q-37 37 -102 37q-63 0 -100 -39 q-39 -37 -43 -127l-203 21q14 166 113 241q92 72 239 72q160 0 246 -84q90 -82 90 -211q0 -72 -25 -135q-29 -68 -81 -137q-35 -43 -134 -136q-49 -45 -78.5 -73.5t-43.5 -42.5q-12 -16 -22.5 -29.5t-18.5 -28.5h403v-188h-713z" />
<glyph unicode="M" horiz-adv-x="2560" d="M-254 907v185q80 29 174 100q92 72 127 170h166v-1067h-203v768q-57 -53 -121.5 -92t-142.5 -64zM-252 2v203h1258v-203h-1258zM313 295q12 111 70 203q29 47 86 111.5t143 144.5q135 125 168 172q41 61 41 125q0 66 -35 104q-37 37 -102 37q-63 0 -100 -39 q-39 -37 -43 -127l-203 21q14 166 113 241q94 74 239 74q156 0 246 -86q90 -82 90 -211q0 -72 -25 -135q-14 -33 -33.5 -68t-47.5 -69q-35 -43 -134 -136q-49 -45 -78.5 -73.5t-43.5 -42.5q-12 -16 -22.5 -29.5t-18.5 -28.5h403v-188h-713z" />
<glyph unicode="N" d="M-1432 489v179l461 673h172v-671h131v-181h-131v-213h-196v213h-437zM-1241 670h246v362z" />
<glyph unicode="O" horiz-adv-x="3788" d="M6 6v203h1391v-203h-1391zM14 299q12 111 70 203q29 47 86 111.5t143 142.5q68 66 110 108.5t58 65.5q43 63 43 125q0 68 -37 104q-37 37 -102 37q-63 0 -100 -39q-37 -37 -43 -127l-203 21q18 168 113 241q92 72 239 72q160 0 246 -84q90 -82 90 -211q0 -72 -25 -135 q-29 -68 -81 -137q-35 -43 -134 -135q-96 -90 -122 -117q-12 -16 -22.5 -29.5t-18.5 -28.5h403v-188h-713zM690 571l203 23q10 -72 51 -111t98 -39q66 0 109 52q43 51 43 155q0 98 -43 148q-43 49 -115 49q-88 0 -155 -78l-166 23l104 553h539v-191h-385l-31 -180 q70 35 139 35q133 0 230 -99q94 -100 94 -256q0 -129 -76 -233q-104 -141 -289 -141q-147 0 -239 79q-93 76 -111 211z" />
<glyph unicode="P" d="M-610 907v185q80 29 174 100q92 72 127 170h166v-1067h-203v768q-57 -53 -121.5 -92t-142.5 -64zM-608 2v203h1257v-203h-1257zM-16 811q0 295 106 422q106 129 281 129q121 0 200 -68q81 -69 101 -198l-197 -21q-6 59 -37 90q-33 29 -80 29q-63 0 -108 -57t-57 -242 q78 90 190 90q127 0 217 -98q92 -96 92 -250q0 -162 -96 -262q-96 -98 -246 -99q-158 0 -264 125q-102 123 -102 410zM211 653q0 -102 45 -153q45 -53 104 -54q57 0 95 43q39 49 39 146q0 100 -41 151q-39 47 -103 48q-59 0 -98 -46q-41 -47 -41 -135z" />
<glyph unicode="S" horiz-adv-x="1536" d="M-616 907v185q80 29 174 100q92 72 127 170h165v-1067h-202v768q-57 -53 -122 -92t-142 -64zM-614 2v203h1257v-203h-1257zM-39 1001q0 164 96 261q96 100 244 100q162 0 264 -125q104 -127 105 -412q0 -289 -109 -419q-109 -129 -280 -130q-123 0 -201 66 q-78 68 -98 199l196 22q6 -63 37 -90q33 -29 82 -29q61 0 106 58q43 59 56 241q-78 -90 -191 -90q-125 0 -217 97q-90 100 -90 251zM160 1001q0 -100 41 -151q41 -47 102 -47q59 0 98 47q41 47 41 135q0 96 -45 154q-47 53 -106 53q-55 0 -92 -45q-39 -41 -39 -146z" />
<glyph unicode="T" horiz-adv-x="2662" d="M-358 907v185q80 29 174 100q92 72 127 170h166v-1067h-203v768q-117 -109 -264 -156zM-356 2v203h1257v-203h-1257zM231 598q0 86 43 158q44 71 136 112q-80 35 -115 90q-37 57 -37 129q0 117 84 197q84 78 236 78q147 0 235 -78q82 -80 82 -197q0 -76 -37 -131 q-39 -57 -108 -88q88 -37 135 -104q45 -72 45 -158q0 -145 -94 -237q-92 -92 -250 -93q-145 0 -240 76q-115 90 -115 246zM432 618q0 -86 43 -131q41 -47 109 -47q61 0 104 45q41 47 41 131q0 72 -43 119q-43 45 -106 45q-74 0 -111 -51q-37 -54 -37 -111zM451 1073 q0 -57 34 -96q33 -33 93 -33q59 0 92 35q35 35 35 94q0 57 -35 92t-90 35t-95 -35q-34 -39 -34 -92z" />
<glyph unicode="U" horiz-adv-x="835" d="M-8 272q12 111 69 203q29 47 86.5 111.5t143.5 142.5q68 66 109.5 109t58.5 65q43 63 43 125q0 68 -37 105q-36 36 -100 36h-3q-63 0 -100 -39q-37 -37 -43 -126l-203 20q18 168 113 242q91 71 236 71h4q160 0 245 -84q90 -82 91 -211q0 -72 -25 -135q-29 -68 -82 -137 q-35 -43 -133 -135q-96 -90 -123 -117q-12 -16 -22.5 -29.5t-18.5 -27.5h404v-189h-713z" />
<glyph unicode="V" horiz-adv-x="1177" d="M610 -2v203h1217v-203h-1217zM618 291q12 111 70 203q29 47 86 111.5t144 144.5q135 125 167 172q43 63 43 125q0 68 -36 104q-37 37 -103 37q-63 0 -100 -39q-37 -37 -43 -127l-203 20q18 168 113 242q94 74 239 74q156 0 246 -86q90 -82 90 -211q0 -72 -24 -135 q-14 -33 -34 -68t-48 -70q-35 -43 -133 -135q-96 -90 -123 -116q-12 -16 -22.5 -29.5t-18.5 -28.5h403v-188h-713zM1346 903v184q80 29 174 101q92 72 127 170h165v-1067h-204v768q-113 -106 -262 -156z" />
<glyph unicode="a" d="M-4 893v184q78 27 174 99q92 74 127 170h166v-1065h-203v766q-115 -106 -264 -154zM-2 -12v202h1257v-202h-1257zM582 561l196 25q8 -72 51 -115q41 -41 101 -41q63 0 106 49q43 45 43 129q0 74 -43 121q-39 45 -100 45q-18 0 -42 -4t-50 -10l22 164q82 0 125 37t43 100 q0 55 -30 86q-16 16 -37 24.5t-49 8.5q-51 0 -89 -37q-37 -37 -45 -107l-188 33q10 47 24.5 86t34.5 68q37 55 111 90q68 33 158 33q150 0 241 -95q74 -80 74 -178q0 -137 -152 -223q90 -18 146 -86q53 -68 53 -166q0 -139 -100 -238q-104 -98 -256 -98q-143 0 -238 82 q-94 82 -110 217z" />
<glyph unicode="c" d="M8 -4v203h1391v-203h-1391zM16 289q12 111 70 203q29 47 86 111.5t143 141.5q68 66 110 109t58 66q43 63 43 124q0 68 -37 105t-102 37q-63 0 -100 -39q-37 -37 -43 -127l-203 20q18 168 113 242q92 72 239 72q160 0 246 -84q90 -82 90 -211q0 -72 -24 -135 q-29 -68 -82 -138q-35 -43 -134 -135q-96 -90 -122 -116q-12 -16 -22.5 -29.5t-18.5 -28.5h403v-188h-713zM690 805q0 295 107 422q109 127 280 127q121 0 201 -68q77 -67 100 -196l-196 -21q-6 59 -37 90q-33 29 -80 29q-63 0 -109 -58q-45 -57 -57 -241q78 90 191 90 q127 0 217 -98q92 -96 92 -250q0 -162 -96 -262q-96 -98 -246 -99q-160 0 -264 125q-102 123 -103 410zM918 647q0 -102 45 -153q45 -53 104 -54q57 0 94 43q39 45 39 146q0 100 -41 151q-39 47 -102 47q-59 0 -99 -45q-40 -47 -40 -135z" />
<glyph unicode="d" d="M6 901v184q80 29 174 101q92 72 127 168h166v-1065h-203v766q-115 -104 -264 -154zM8 -4v203h1258v-203h-1258zM602 561l203 23q10 -72 51 -111t98 -39q63 0 109 51q43 51 43 156q0 98 -43 147t-115 50q-88 0 -155 -78l-166 22l104 553h539v-190h-385l-31 -180 q68 34 135 34h4q133 0 230 -98q94 -100 94 -256q0 -131 -78 -233q-102 -141 -287 -142q-147 0 -239 80q-93 76 -111 211z" />
<glyph unicode="e" d="M8 1153v188h697v-147q-45 -41 -88.5 -102.5t-88.5 -141.5q-88 -156 -135 -336q-25 -90 -36 -168.5t-11 -150.5h-196q6 221 92 448q86 229 229 410h-463z" />
<glyph unicode="g" d="M0 2v203h1391v-203h-1391zM8 295q12 111 70 203q29 47 86 111.5t143 144.5q135 125 168 172q43 63 43 125q0 68 -37 104q-37 37 -102 37q-63 0 -100 -39q-37 -37 -43 -127l-203 21q18 168 112 241q94 74 240 74q156 0 246 -86q90 -82 90 -211q0 -72 -25 -135 q-14 -33 -33.5 -68t-48.5 -69q-35 -43 -133 -136q-96 -90 -123 -116q-12 -16 -22 -29.5t-19 -28.5h404v-188h-713zM680 821q0 299 104 432q86 109 242 109q154 0 240 -111q104 -133 104 -432q0 -303 -104 -434q-86 -109 -240 -109q-156 0 -250 119q-96 121 -96 426zM893 819 q0 -188 18 -258q10 -35 21.5 -58.5t28.5 -33.5q25 -23 65 -23q37 0 66 23q27 25 45 84q10 41 15 106.5t5 159.5q0 184 -18 256q-18 68 -47 94q-33 23 -66 23q-35 0 -68 -23q-27 -23 -45 -86q-10 -39 -15 -104.5t-5 -159.5z" />
<glyph unicode="i" d="M-4 979q0 160 96 260q94 98 244 98q162 0 266 -125q102 -125 103 -409q0 -293 -109 -420q-109 -129 -281 -129q-123 0 -200 65q-79 68 -99 199l197 21q6 -57 37 -88q33 -29 82 -29q63 0 106 57q45 61 58 240q-76 -88 -193 -88q-125 0 -217 96q-90 100 -90 252zM197 979 q0 -104 39 -152q43 -47 102 -47t98 45q41 52 41 138q0 96 -45 153q-47 53 -104 53t-95 -45q-36 -42 -36 -140v-5z" />
<glyph unicode="j" d="M-2 891v184q80 29 174 101q92 72 127 167h166v-1064h-203v765q-115 -106 -264 -153z" />
<glyph unicode="l" d="M0 2v203h1391v-203h-1391zM8 295q12 111 70 203q29 47 86 111.5t143 142.5q68 66 110 108.5t58 65.5q43 63 43 125q0 68 -37 104q-37 37 -102 37q-63 0 -100 -39q-37 -37 -43 -127l-203 21q18 168 112 241q92 72 240 72q160 0 246 -84q90 -82 90 -211q0 -72 -25 -135 q-29 -68 -82 -137q-35 -43 -133 -136q-96 -90 -123 -116q-12 -16 -22 -29.5t-19 -28.5h404v-188h-713zM655 295q12 111 70 203q29 47 86 111.5t143 142.5q68 66 110 108.5t58 65.5q41 61 41 125q0 66 -35 104q-37 37 -102 37q-63 0 -100 -39q-39 -37 -43 -127l-203 21 q14 166 113 241q92 72 239 72q160 0 246 -84q90 -82 90 -211q0 -72 -25 -135q-29 -68 -81 -137q-35 -43 -134 -136q-49 -45 -78.5 -73.5t-43.5 -42.5q-12 -16 -22.5 -29.5t-18.5 -28.5h403v-188h-713z" />
<glyph unicode="m" d="M2 907v185q80 29 174 100q92 72 127 170h166v-1067h-203v768q-57 -53 -121.5 -92t-142.5 -64zM4 2v203h1258v-203h-1258zM569 295q12 111 70 203q29 47 86 111.5t143 144.5q135 125 168 172q41 61 41 125q0 66 -35 104q-37 37 -102 37q-63 0 -100 -39q-39 -37 -43 -127 l-203 21q14 166 113 241q94 74 239 74q156 0 246 -86q90 -82 90 -211q0 -72 -25 -135q-14 -33 -33.5 -68t-47.5 -69q-35 -43 -134 -136q-49 -45 -78.5 -73.5t-43.5 -42.5q-12 -16 -22.5 -29.5t-18.5 -28.5h403v-188h-713z" />
<glyph unicode="n" d="M0 489v179l461 673h172v-671h131v-181h-131v-213h-197v213h-436zM190 670h246v362z" />
<glyph unicode="o" d="M6 6v203h1391v-203h-1391zM14 299q12 111 70 203q29 47 86 111.5t143 142.5q68 66 110 108.5t58 65.5q43 63 43 125q0 68 -37 104q-37 37 -102 37q-63 0 -100 -39q-37 -37 -43 -127l-203 21q18 168 113 241q92 72 239 72q160 0 246 -84q90 -82 90 -211q0 -72 -25 -135 q-29 -68 -81 -137q-35 -43 -134 -135q-96 -90 -122 -117q-12 -16 -22.5 -29.5t-18.5 -28.5h403v-188h-713zM690 571l203 23q10 -72 51 -111t98 -39q66 0 109 52q43 51 43 155q0 98 -43 148q-43 49 -115 49q-88 0 -155 -78l-166 23l104 553h539v-191h-385l-31 -180 q70 35 139 35q133 0 230 -99q94 -100 94 -256q0 -129 -76 -233q-104 -141 -289 -141q-147 0 -239 79q-93 76 -111 211z" />
<glyph unicode="p" d="M4 907v185q80 29 174 100q92 72 127 170h166v-1067h-203v768q-57 -53 -121.5 -92t-142.5 -64zM6 2v203h1258v-203h-1258zM598 811q0 295 107 422q106 129 280 129q121 0 201 -68q80 -69 100 -198l-196 -21q-6 59 -37 90q-33 29 -80 29q-63 0 -109 -57q-45 -57 -57 -242 q78 90 190 90q127 0 217 -98q92 -96 93 -250q0 -162 -97 -262q-96 -98 -245 -99q-158 0 -265 125q-102 123 -102 410zM825 653q0 -102 45 -153q45 -53 105 -54q57 0 94 43q39 49 39 146q0 100 -41 151q-39 47 -102 48q-59 0 -99 -46q-41 -47 -41 -135z" />
<glyph unicode="s" d="M-2 907v185q80 29 174 100q92 72 127 170h166v-1067h-203v768q-57 -53 -121.5 -92t-142.5 -64zM0 2v203h1257v-203h-1257zM575 1001q0 164 97 261q96 100 243 100q162 0 265 -125q104 -127 104 -412q0 -289 -108 -419q-109 -129 -281 -130q-123 0 -201 66q-78 68 -98 199 l197 22q6 -63 36 -90q33 -29 82 -29q61 0 107 58q43 59 55 241q-78 -90 -190 -90q-125 0 -217 97q-90 100 -91 251zM774 1001q0 -100 41 -151q41 -47 103 -47q59 0 98 47q41 47 41 135q0 96 -45 154q-47 53 -107 53q-55 0 -92 -45q-39 -41 -39 -146z" />
<glyph unicode="t" d="M0 907v185q80 29 174 100q92 72 127 170h166v-1067h-203v768q-117 -109 -264 -156zM2 2v203h1258v-203h-1258zM590 598q0 86 43 158q43 71 135 112q-80 35 -115 90q-37 57 -37 129q0 117 84 197q84 78 236 78q147 0 235 -78q82 -80 82 -197q0 -76 -36 -131 q-39 -57 -109 -88q88 -37 135 -104q45 -72 45 -158q0 -145 -94 -237q-92 -92 -250 -93q-145 0 -239 76q-115 90 -115 246zM791 618q0 -86 43 -131q41 -47 108 -47q61 0 105 45q40 46 40 127q0 76 -43 123q-43 45 -106 45q-74 0 -111 -51q-36 -54 -36 -111zM809 1073 q0 -57 35 -96q33 -33 92 -33t92 35q35 35 35 94q0 57 -35 92t-90 35t-94 -35q-35 -39 -35 -92z" />
<glyph unicode="u" d="M-8 272q12 111 69 203q29 47 86.5 111.5t143.5 142.5q68 66 109.5 109t58.5 65q43 63 43 125q0 68 -37 105q-36 36 -100 36h-3q-63 0 -100 -39q-37 -37 -43 -126l-203 20q18 168 113 242q91 71 236 71h4q160 0 245 -84q90 -82 91 -211q0 -72 -25 -135q-29 -68 -82 -137 q-35 -43 -133 -135q-96 -90 -123 -117q-12 -16 -22.5 -29.5t-18.5 -27.5h404v-189h-713z" />
<glyph unicode="v" d="M-4 -2v203h1216v-203h-1216zM4 291q12 111 70 203q29 47 86 111.5t143 144.5q135 125 168 172q43 63 43 125q0 68 -37 104q-37 37 -102 37q-63 0 -101 -39q-37 -37 -43 -127l-202 20q18 168 112 242t240 74q156 0 246 -86q90 -82 90 -211q0 -72 -25 -135 q-14 -33 -33.5 -68t-48.5 -70q-35 -43 -133 -135q-96 -90 -123 -116q-12 -16 -22 -29.5t-19 -28.5h404v-188h-713zM731 903v184q80 29 174 101q92 72 127 170h166v-1067h-205v768q-113 -106 -262 -156z" />
<glyph unicode="&#xc7;" d="M8 2v203h1391v-203h-1391zM16 295q12 111 70 203q29 47 86 111.5t143 142.5q68 66 110 108.5t58 65.5q43 63 43 125q0 68 -37 104q-37 37 -102 37q-63 0 -100 -39q-37 -37 -43 -127l-203 21q18 168 113 241q92 72 239 72q160 0 246 -84q90 -82 90 -211q0 -72 -24 -135 q-29 -68 -82 -137q-35 -43 -134 -136q-96 -90 -122 -116q-12 -16 -22.5 -29.5t-18.5 -28.5h403v-188h-713zM563 8h275v-446h-275v446zM690 811q0 295 107 422q109 127 280 127q121 0 201 -68q77 -67 100 -196l-196 -21q-6 59 -37 90q-33 29 -80 29q-63 0 -109 -57 q-45 -57 -57 -242q78 90 191 90q127 0 217 -98q92 -96 92 -250q0 -162 -96 -262q-96 -98 -246 -99q-160 0 -264 125q-102 123 -103 410zM918 653q0 -102 45 -153q45 -53 104 -54q57 0 94 43q39 45 39 146q0 100 -41 151q-39 47 -102 48q-59 0 -99 -46q-40 -47 -40 -135z" />
<glyph unicode="&#xe7;" d="M8 2v203h1391v-203h-1391zM16 295q12 111 70 203q29 47 86 111.5t143 142.5q68 66 110 108.5t58 65.5q43 63 43 125q0 68 -37 104q-37 37 -102 37q-63 0 -100 -39q-37 -37 -43 -127l-203 21q18 168 113 241q92 72 239 72q160 0 246 -84q90 -82 90 -211q0 -72 -24 -135 q-29 -68 -82 -137q-35 -43 -134 -136q-96 -90 -122 -116q-12 -16 -22.5 -29.5t-18.5 -28.5h403v-188h-713zM563 8h275v-446h-275v446zM690 811q0 295 107 422q109 127 280 127q121 0 201 -68q77 -67 100 -196l-196 -21q-6 59 -37 90q-33 29 -80 29q-63 0 -109 -57 q-45 -57 -57 -242q78 90 191 90q127 0 217 -98q92 -96 92 -250q0 -162 -96 -262q-96 -98 -246 -99q-160 0 -264 125q-102 123 -103 410zM918 653q0 -102 45 -153q45 -53 104 -54q57 0 94 43q39 45 39 146q0 100 -41 151q-39 47 -102 48q-59 0 -99 -46q-40 -47 -40 -135z" />
<glyph unicode="&#x2000;" horiz-adv-x="682" />
<glyph unicode="&#x2001;" horiz-adv-x="1365" />
<glyph unicode="&#x2002;" horiz-adv-x="682" />
<glyph unicode="&#x2003;" horiz-adv-x="1365" />
<glyph unicode="&#x2004;" horiz-adv-x="455" />
<glyph unicode="&#x2005;" horiz-adv-x="341" />
<glyph unicode="&#x2006;" horiz-adv-x="227" />
<glyph unicode="&#x2007;" horiz-adv-x="227" />
<glyph unicode="&#x2008;" horiz-adv-x="170" />
<glyph unicode="&#x2009;" horiz-adv-x="273" />
<glyph unicode="&#x200a;" horiz-adv-x="75" />
<glyph unicode="&#x202f;" horiz-adv-x="273" />
<glyph unicode="&#x205f;" horiz-adv-x="341" />
<glyph unicode="&#x25fc;" horiz-adv-x="1024" d="M0 0z" />
</font>
</defs>
</svg>
